<svg width="183" height="59" viewBox="0 0 183 59" fill="none" xmlns="http://www.w3.org/2000/svg">
<g clip-path="url(#clip0_2_279)">
<path d="M38.7689 59.0001C38.4952 59.0001 38.2215 58.896 38.0212 58.6877L11.6105 31.1076C11.2381 30.7191 11.2719 30.1195 11.6839 29.7704C12.0958 29.4213 12.7306 29.4523 13.103 29.838L39.5165 57.418C39.889 57.8065 39.8551 58.4061 39.4432 58.7552C39.2513 58.9185 39.0115 59.0001 38.7689 59.0001V59.0001Z" fill="url(#paint0_linear_2_279)"/>
<path d="M38.9071 52.193C38.6362 52.193 38.3682 52.0916 38.1707 51.889L17.7131 31.1159C17.335 30.7331 17.3604 30.1334 17.7667 29.7787C18.173 29.424 18.8106 29.4465 19.1858 29.8294L39.6435 50.6024C40.0215 50.9853 39.9961 51.5849 39.5899 51.9396C39.3952 52.1085 39.1526 52.193 38.9071 52.193V52.193Z" fill="url(#paint1_linear_2_279)"/>
<path d="M38.7548 45.355C38.4839 45.355 38.2159 45.2536 38.0184 45.0509L24.3095 31.1159C23.9314 30.7331 23.9568 30.1334 24.3631 29.7787C24.7693 29.424 25.407 29.4465 25.7822 29.8294L39.4912 43.7644C39.8692 44.1473 39.8438 44.7469 39.4376 45.1016C39.2429 45.2705 39.0002 45.355 38.7548 45.355Z" fill="url(#paint2_linear_2_279)"/>
<path d="M28.9393 31.389H14.9679C14.4121 31.389 13.9635 30.9639 13.9635 30.4431C13.9635 29.9223 14.4121 29.4972 14.9679 29.4972H28.9393C36.8306 29.4972 43.2492 23.4502 43.2492 16.0182C43.2492 8.5862 36.8306 2.53644 28.9393 2.53644H1.5044C0.948595 2.53644 0.5 2.11135 0.5 1.59055C0.5 1.06974 0.951417 0.644653 1.5044 0.644653H28.9393C37.9366 0.644653 45.258 7.54178 45.258 16.0154C45.258 24.489 37.9366 31.3861 28.9393 31.3861V31.389Z" fill="url(#paint3_linear_2_279)"/>
<path d="M24.5718 31.3889H13.2159C12.6601 31.3889 12.2115 30.9638 12.2115 30.443C12.2115 29.9222 12.6601 29.4971 13.2159 29.4971H24.5718C31.1653 29.4971 36.5287 24.7705 36.5287 18.9628C36.5287 13.1552 31.1653 8.42853 24.5718 8.42853H6.94117C6.38536 8.42853 5.93677 8.00344 5.93677 7.48264C5.93677 6.96183 6.38536 6.53674 6.94117 6.53674H24.5718C32.2741 6.53674 38.5375 12.1107 38.5375 18.9656C38.5375 25.8205 32.2713 31.3946 24.5718 31.3946V31.3889Z" fill="url(#paint4_linear_2_279)"/>
<path d="M20.3313 31.389H12.3723C11.8165 31.389 11.3679 30.9639 11.3679 30.4431C11.3679 29.9223 11.8165 29.4972 12.3723 29.4972H20.3313C25.2207 29.4972 29.1988 25.998 29.1988 21.6992C29.1988 17.4005 25.2207 13.9012 20.3313 13.9012H12.5669C12.0111 13.9012 11.5625 13.4762 11.5625 12.9554C11.5625 12.4345 12.0139 12.0095 12.5669 12.0095H20.3313C26.3295 12.0095 31.2105 16.3561 31.2105 21.702C31.2105 27.048 26.3295 31.3946 20.3313 31.3946V31.389Z" fill="url(#paint5_linear_2_279)"/>
<path d="M3.7389 1.51174C3.7389 2.34784 3.01946 3.02348 2.13355 3.02348C1.24764 3.02348 0.528198 2.34502 0.528198 1.51174C0.528198 0.678452 1.24764 0 2.13355 0C3.01946 0 3.7389 0.675637 3.7389 1.51174Z" fill="url(#paint6_linear_2_279)"/>
<path d="M9.1164 7.55025C9.1164 8.38635 8.39696 9.06199 7.51105 9.06199C6.62515 9.06199 5.9057 8.38635 5.9057 7.55025C5.9057 6.71415 6.62515 6.03851 7.51105 6.03851C8.39696 6.03851 9.1164 6.71415 9.1164 7.55025V7.55025Z" fill="url(#paint7_linear_2_279)"/>
<path d="M14.6998 12.9722C14.6998 13.8083 13.9804 14.484 13.0945 14.484C12.2086 14.484 11.4891 13.8083 11.4891 12.9722C11.4891 12.1361 12.2086 11.4605 13.0945 11.4605C13.9804 11.4605 14.6998 12.1361 14.6998 12.9722Z" fill="url(#paint8_linear_2_279)"/>
<path d="M127.594 7.57275C126.736 7.57275 126.039 8.25402 126.039 9.09012V32.2082C126.039 33.0443 126.736 33.7255 127.594 33.7255C128.451 33.7255 129.148 33.0443 129.148 32.2082V9.09294C129.148 8.25684 128.451 7.57557 127.594 7.57557V7.57275Z" fill="#11113B"/>
<path d="M85.4397 7.57275C84.582 7.57275 83.8851 8.25402 83.8851 9.09012V32.2082C83.8851 33.0443 84.582 33.7255 85.4397 33.7255C86.2974 33.7255 86.9943 33.0443 86.9943 32.2082V9.09294C86.9943 8.25684 86.2974 7.57557 85.4397 7.57557V7.57275Z" fill="#11113B"/>
<path d="M66.9147 23.4474C70.4922 22.3298 72.453 19.6301 72.453 15.7986C72.453 10.6497 68.8699 7.57275 62.8689 7.57275H57.1838C56.3261 7.57275 55.6293 8.25402 55.6293 9.09012C55.6293 9.92622 56.3261 10.6075 57.1838 10.6075H62.8689C65.7749 10.6075 69.2395 11.5083 69.2395 15.7958C69.2395 20.0833 65.7749 20.9476 62.8689 20.9476H57.1838C56.3261 20.9476 55.6293 21.6288 55.6293 22.4677C55.6293 23.3066 56.3261 23.9851 57.1838 23.9851H62.8689C63.0748 23.9851 63.2751 23.9851 63.4642 23.9795L70.2806 33.1006C70.5712 33.4919 71.0395 33.7227 71.5389 33.7227C72.1257 33.7227 72.659 33.4046 72.9242 32.8922C73.1894 32.3799 73.1414 31.7718 72.7944 31.3073L66.9147 23.4446V23.4474Z" fill="#11113B"/>
<path d="M174.583 19.357C174.284 19.2585 173.988 19.1599 173.689 19.0586C173.395 18.96 173.099 18.8643 172.806 18.7658C169.273 17.606 167.109 16.7839 167.109 14.5825C167.109 11.3197 170.106 10.1571 172.913 10.1571C175.139 10.1571 177.374 10.6497 179.047 11.5055C179.526 11.7504 180.088 11.7335 180.553 11.4605C181.016 11.1874 181.292 10.706 181.292 10.1768V10.1176C181.292 9.57432 180.996 9.07322 180.517 8.81141C178.581 7.7501 175.737 7.11951 172.913 7.11951C167.583 7.11951 164.003 10.1176 164.003 14.5825C164.003 19.0473 168.179 20.4352 171.863 21.6626C172.154 21.7611 172.447 21.8568 172.738 21.9554C173.116 22.0849 173.491 22.2087 173.855 22.3298C177.492 23.5319 179.391 24.2722 179.391 26.7102C179.391 30.8147 174.651 31.1356 173.198 31.1356C169.451 31.1356 167.039 29.9082 166.178 29.3789C165.704 29.089 165.106 29.0721 164.618 29.3367C164.13 29.6013 163.828 30.1052 163.828 30.6486C163.828 31.144 164.074 31.6029 164.483 31.8816C166.633 33.337 169.81 34.1703 173.198 34.1703C178.846 34.1703 182.497 31.2426 182.497 26.7073C182.497 22.1721 178.293 20.5759 174.583 19.3513V19.357Z" fill="#11113B"/>
<path d="M156.541 7.34753C155.683 7.34753 154.986 8.0288 154.986 8.8649V23.6107C154.986 28.6611 153.042 30.9132 148.686 30.9132C144.33 30.9132 142.352 28.6611 142.352 23.6107V8.8649C142.352 8.0288 141.655 7.34753 140.798 7.34753C139.94 7.34753 139.243 8.0288 139.243 8.8649V23.6107C139.243 32.1547 144.378 33.9479 148.686 33.9479C152.994 33.9479 158.092 32.1547 158.092 23.6107V8.8649C158.092 8.0288 157.396 7.34753 156.538 7.34753H156.541Z" fill="#11113B"/>
<path d="M106.885 29.7083L98.1696 8.51865C97.9326 7.94435 97.3712 7.57275 96.7025 7.57275C96.1891 7.57275 95.7094 7.82049 95.4216 8.23713C95.1339 8.65377 95.0774 9.18021 95.2693 9.64471L104.803 32.7796C105.04 33.3539 105.601 33.7255 106.236 33.7255H106.806C107.235 33.7255 107.568 33.5848 107.827 33.2892C108.09 33.0161 108.163 32.6136 108.011 32.2645C107.599 31.3355 106.961 29.8885 106.888 29.7083H106.885Z" fill="#11113B"/>
<path d="M116.892 7.67125C116.097 7.37847 115.225 7.75007 114.914 8.4989L109.006 21.9666C108.775 22.5296 108.908 23.1715 109.348 23.6022C109.641 23.8893 110.033 24.047 110.44 24.047C110.541 24.047 110.646 24.0357 110.75 24.016C111.255 23.9147 111.675 23.5769 111.87 23.1124L117.761 9.67001C117.919 9.28433 117.914 8.84798 117.741 8.46794C117.575 8.09633 117.273 7.81482 116.889 7.67406L116.892 7.67125Z" fill="#11113B"/>
<path d="M127.594 7.57275C126.736 7.57275 126.039 8.25402 126.039 9.09012V32.2082C126.039 33.0443 126.736 33.7255 127.594 33.7255C128.451 33.7255 129.148 33.0443 129.148 32.2082V9.09294C129.148 8.25684 128.451 7.57557 127.594 7.57557V7.57275Z" fill="white"/>
<path d="M85.4397 7.57275C84.582 7.57275 83.8851 8.25402 83.8851 9.09012V32.2082C83.8851 33.0443 84.582 33.7255 85.4397 33.7255C86.2974 33.7255 86.9943 33.0443 86.9943 32.2082V9.09294C86.9943 8.25684 86.2974 7.57557 85.4397 7.57557V7.57275Z" fill="white"/>
<path d="M66.9147 23.4474C70.4922 22.3298 72.453 19.6301 72.453 15.7986C72.453 10.6497 68.8699 7.57275 62.8689 7.57275H57.1838C56.3261 7.57275 55.6293 8.25402 55.6293 9.09012C55.6293 9.92622 56.3261 10.6075 57.1838 10.6075H62.8689C65.7749 10.6075 69.2395 11.5083 69.2395 15.7958C69.2395 20.0833 65.7749 20.9476 62.8689 20.9476H57.1838C56.3261 20.9476 55.6293 21.6288 55.6293 22.4677C55.6293 23.3066 56.3261 23.9851 57.1838 23.9851H62.8689C63.0748 23.9851 63.2751 23.9851 63.4642 23.9795L70.2806 33.1006C70.5712 33.4919 71.0395 33.7227 71.5389 33.7227C72.1257 33.7227 72.659 33.4046 72.9242 32.8922C73.1894 32.3799 73.1414 31.7718 72.7944 31.3073L66.9147 23.4446V23.4474Z" fill="white"/>
<path d="M174.583 19.357C174.284 19.2585 173.988 19.1599 173.689 19.0586C173.395 18.96 173.099 18.8643 172.806 18.7658C169.273 17.606 167.109 16.7839 167.109 14.5825C167.109 11.3197 170.106 10.1571 172.913 10.1571C175.139 10.1571 177.374 10.6497 179.047 11.5055C179.526 11.7504 180.088 11.7335 180.553 11.4605C181.016 11.1874 181.292 10.706 181.292 10.1768V10.1176C181.292 9.57432 180.996 9.07322 180.517 8.81141C178.581 7.7501 175.737 7.11951 172.913 7.11951C167.583 7.11951 164.003 10.1176 164.003 14.5825C164.003 19.0473 168.179 20.4352 171.863 21.6626C172.154 21.7611 172.447 21.8568 172.738 21.9554C173.116 22.0849 173.491 22.2087 173.855 22.3298C177.492 23.5319 179.391 24.2722 179.391 26.7102C179.391 30.8147 174.651 31.1356 173.198 31.1356C169.451 31.1356 167.039 29.9082 166.178 29.3789C165.704 29.089 165.106 29.0721 164.618 29.3367C164.13 29.6013 163.828 30.1052 163.828 30.6486C163.828 31.144 164.074 31.6029 164.483 31.8816C166.633 33.337 169.81 34.1703 173.198 34.1703C178.846 34.1703 182.497 31.2426 182.497 26.7073C182.497 22.1721 178.293 20.5759 174.583 19.3513V19.357Z" fill="white"/>
<path d="M156.541 7.34753C155.683 7.34753 154.986 8.0288 154.986 8.8649V23.6107C154.986 28.6611 153.042 30.9132 148.686 30.9132C144.33 30.9132 142.352 28.6611 142.352 23.6107V8.8649C142.352 8.0288 141.655 7.34753 140.798 7.34753C139.94 7.34753 139.243 8.0288 139.243 8.8649V23.6107C139.243 32.1547 144.378 33.9479 148.686 33.9479C152.994 33.9479 158.092 32.1547 158.092 23.6107V8.8649C158.092 8.0288 157.396 7.34753 156.538 7.34753H156.541Z" fill="white"/>
<path d="M106.885 29.7083L98.1696 8.51865C97.9326 7.94435 97.3712 7.57275 96.7025 7.57275C96.1891 7.57275 95.7094 7.82049 95.4216 8.23713C95.1339 8.65377 95.0774 9.18021 95.2693 9.64471L104.803 32.7796C105.04 33.3539 105.601 33.7255 106.236 33.7255H106.806C107.235 33.7255 107.568 33.5848 107.827 33.2892C108.09 33.0161 108.163 32.6136 108.011 32.2645C107.599 31.3355 106.961 29.8885 106.888 29.7083H106.885Z" fill="white"/>
<path d="M116.892 7.67125C116.097 7.37847 115.225 7.75007 114.914 8.4989L109.006 21.9666C108.775 22.5296 108.908 23.1715 109.348 23.6022C109.641 23.8893 110.033 24.047 110.44 24.047C110.541 24.047 110.646 24.0357 110.75 24.016C111.255 23.9147 111.675 23.5769 111.87 23.1124L117.761 9.67001C117.919 9.28433 117.914 8.84798 117.741 8.46794C117.575 8.09633 117.273 7.81482 116.889 7.67406L116.892 7.67125Z" fill="white"/>
</g>
<defs>
<linearGradient id="paint0_linear_2_279" x1="23.432" y1="56.3173" x2="27.6741" y2="32.2051" gradientUnits="userSpaceOnUse">
<stop stop-color="#69C7BA"/>
<stop offset="1" stop-color="#6A50A1"/>
</linearGradient>
<linearGradient id="paint1_linear_2_279" x1="27.0405" y1="50.1238" x2="30.3021" y2="31.5949" gradientUnits="userSpaceOnUse">
<stop stop-color="#69C7BA"/>
<stop offset="1" stop-color="#6A50A1"/>
</linearGradient>
<linearGradient id="paint2_linear_2_279" x1="30.7478" y1="43.9643" x2="33.043" y2="30.9171" gradientUnits="userSpaceOnUse">
<stop stop-color="#69C7BA"/>
<stop offset="1" stop-color="#6A50A1"/>
</linearGradient>
<linearGradient id="paint3_linear_2_279" x1="45.258" y1="16.0154" x2="0.5" y2="16.0154" gradientUnits="userSpaceOnUse">
<stop stop-color="#69C7BA"/>
<stop offset="1" stop-color="#6A50A1"/>
</linearGradient>
<linearGradient id="paint4_linear_2_279" x1="38.5404" y1="18.96" x2="5.93677" y2="18.96" gradientUnits="userSpaceOnUse">
<stop stop-color="#69C7BA"/>
<stop offset="1" stop-color="#6A50A1"/>
</linearGradient>
<linearGradient id="paint5_linear_2_279" x1="31.2076" y1="21.6964" x2="11.365" y2="21.6964" gradientUnits="userSpaceOnUse">
<stop stop-color="#69C7BA"/>
<stop offset="1" stop-color="#6A50A1"/>
</linearGradient>
<linearGradient id="paint6_linear_2_279" x1="0.528198" y1="1.51174" x2="3.7389" y2="1.51174" gradientUnits="userSpaceOnUse">
<stop stop-color="#69C7BA"/>
<stop offset="1" stop-color="#6A50A1"/>
</linearGradient>
<linearGradient id="paint7_linear_2_279" x1="5.9057" y1="7.55025" x2="9.1164" y2="7.55025" gradientUnits="userSpaceOnUse">
<stop stop-color="#69C7BA"/>
<stop offset="1" stop-color="#6A50A1"/>
</linearGradient>
<linearGradient id="paint8_linear_2_279" x1="11.4891" y1="12.9722" x2="14.6998" y2="12.9722" gradientUnits="userSpaceOnUse">
<stop stop-color="#69C7BA"/>
<stop offset="1" stop-color="#6A50A1"/>
</linearGradient>
<clipPath id="clip0_2_279">
<rect width="182" height="59" fill="white" transform="translate(0.5)"/>
</clipPath>
</defs>
</svg>
