<svg width="48" height="45" viewBox="0 0 48 45" fill="none" xmlns="http://www.w3.org/2000/svg">
<path fill-rule="evenodd" clip-rule="evenodd" d="M26.2022 24.6262L23.851 38.0918L21.4998 24.6262L7.22569 22.4082L21.4998 20.1902L23.851 6.72456L26.2022 20.1902L40.4763 22.4082L26.2022 24.6262ZM45.2683 22.4082L26.8799 19.5509L23.851 2.20408L20.8222 19.5509L2.43378 22.4082L20.8222 25.2655L23.851 42.6122L26.8799 25.2655L45.2683 22.4082Z" fill="white"/>
<path fill-rule="evenodd" clip-rule="evenodd" d="M28.4413 22.4221L26.0901 35.8877L23.7389 22.4221L9.46476 20.2041L23.7389 17.9861L26.0901 4.52048L28.4413 17.9861L42.7154 20.2041L28.4413 22.4221ZM47.5073 20.2041L29.1189 17.3468L26.0901 0L23.0612 17.3468L4.67285 20.2041L23.0612 23.0614L26.0901 40.4082L29.1189 23.0614L47.5073 20.2041Z" fill="white"/>
<path d="M21.4172 45L24.4461 27.6532L42.8345 24.7959L24.4461 21.9386L21.4172 4.59184L18.3884 21.9386L0 24.7959L18.3884 27.6532L21.4172 45Z" fill="white"/>
</svg>
