<svg width="49" height="48" viewBox="0 0 49 48" fill="none" xmlns="http://www.w3.org/2000/svg">
<path opacity="0.6" d="M29.4253 41.782L29.8793 40.891H29.8793L29.4253 41.782ZM28.5513 40.908L29.4423 40.454L29.4423 40.454L28.5513 40.908ZM42.1153 40.908L41.2243 40.454V40.454L42.1153 40.908ZM41.2413 41.782L40.7873 40.891H40.7873L41.2413 41.782ZM41.2413 28.218L40.7873 29.109L40.7873 29.109L41.2413 28.218ZM42.1153 29.092L41.2243 29.546V29.546L42.1153 29.092ZM29.4253 28.218L28.9713 27.327L28.9713 27.327L29.4253 28.218ZM28.5513 29.092L27.6603 28.638L27.6603 28.638L28.5513 29.092ZM31.5333 29H39.1333V27H31.5333V29ZM41.3333 31.2V38.8H43.3333V31.2H41.3333ZM39.1333 41H31.5333V43H39.1333V41ZM29.3333 38.8V31.2H27.3333V38.8H29.3333ZM31.5333 41C30.9568 41 30.5845 40.9992 30.3011 40.9761C30.0295 40.9539 29.9288 40.9162 29.8793 40.891L28.9713 42.673C29.3497 42.8658 29.7429 42.9371 30.1383 42.9694C30.522 43.0008 30.9898 43 31.5333 43V41ZM27.3333 38.8C27.3333 39.3436 27.3325 39.8114 27.3639 40.195C27.3962 40.5904 27.4675 40.9836 27.6603 41.362L29.4423 40.454C29.4171 40.4045 29.3794 40.3038 29.3572 40.0322C29.3341 39.7488 29.3333 39.3766 29.3333 38.8H27.3333ZM29.8793 40.891C29.6912 40.7951 29.5382 40.6422 29.4423 40.454L27.6603 41.362C27.9479 41.9265 28.4069 42.3854 28.9713 42.673L29.8793 40.891ZM41.3333 38.8C41.3333 39.3766 41.3325 39.7488 41.3094 40.0322C41.2872 40.3038 41.2495 40.4045 41.2243 40.454L43.0063 41.362C43.1991 40.9836 43.2704 40.5904 43.3027 40.195C43.3341 39.8114 43.3333 39.3436 43.3333 38.8H41.3333ZM39.1333 43C39.6769 43 40.1447 43.0008 40.5283 42.9694C40.9237 42.9371 41.3169 42.8658 41.6953 42.673L40.7873 40.891C40.7379 40.9162 40.6371 40.9539 40.3655 40.9761C40.0821 40.9992 39.7099 41 39.1333 41V43ZM41.2243 40.454C41.1284 40.6422 40.9755 40.7951 40.7873 40.891L41.6953 42.673C42.2598 42.3854 42.7187 41.9265 43.0063 41.362L41.2243 40.454ZM39.1333 29C39.7099 29 40.0821 29.0008 40.3655 29.0239C40.6371 29.0461 40.7379 29.0838 40.7873 29.109L41.6953 27.327C41.3169 27.1342 40.9237 27.0629 40.5283 27.0306C40.1447 26.9992 39.6769 27 39.1333 27V29ZM43.3333 31.2C43.3333 30.6564 43.3341 30.1886 43.3027 29.805C43.2704 29.4096 43.1991 29.0164 43.0063 28.638L41.2243 29.546C41.2495 29.5955 41.2872 29.6962 41.3094 29.9678C41.3325 30.2512 41.3333 30.6234 41.3333 31.2H43.3333ZM40.7873 29.109C40.9755 29.2049 41.1284 29.3578 41.2243 29.546L43.0063 28.638C42.7187 28.0735 42.2598 27.6146 41.6953 27.327L40.7873 29.109ZM31.5333 27C30.9898 27 30.522 26.9992 30.1383 27.0306C29.7429 27.0629 29.3497 27.1342 28.9713 27.327L29.8793 29.109C29.9288 29.0838 30.0295 29.0461 30.3011 29.0239C30.5845 29.0008 30.9568 29 31.5333 29V27ZM29.3333 31.2C29.3333 30.6234 29.3341 30.2512 29.3572 29.9678C29.3794 29.6962 29.4171 29.5955 29.4423 29.546L27.6603 28.638C27.4675 29.0164 27.3962 29.4096 27.3639 29.805C27.3325 30.1886 27.3333 30.6564 27.3333 31.2H29.3333ZM28.9713 27.327C28.4069 27.6146 27.9479 28.0735 27.6603 28.638L29.4423 29.546C29.5382 29.3578 29.6912 29.2049 29.8793 29.109L28.9713 27.327Z" fill="url(#paint0_linear_63_9860)"/>
<path d="M7.42533 19.782L8.10632 18.4455H8.10632L7.42533 19.782ZM6.5513 18.908L7.88781 18.227L7.88781 18.227L6.5513 18.908ZM20.1153 18.908L18.7788 18.227L18.7788 18.227L20.1153 18.908ZM19.2413 19.782L18.5603 18.4455L18.5603 18.4455L19.2413 19.782ZM19.2413 6.21799L18.5603 7.5545L18.5603 7.5545L19.2413 6.21799ZM20.1153 7.09202L18.7788 7.773V7.773L20.1153 7.09202ZM7.42533 6.21799L6.74435 4.88148L6.74435 4.88148L7.42533 6.21799ZM6.5513 7.09202L5.21479 6.41103L5.21479 6.41103L6.5513 7.09202ZM29.4253 19.782L30.1063 18.4455L29.4253 19.782ZM28.5513 18.908L29.8878 18.227V18.227L28.5513 18.908ZM42.1153 18.908L40.7788 18.227V18.227L42.1153 18.908ZM41.2413 19.782L40.5603 18.4455L40.5603 18.4455L41.2413 19.782ZM41.2413 6.21799L40.5603 7.5545V7.5545L41.2413 6.21799ZM42.1153 7.09202L40.7788 7.773V7.773L42.1153 7.09202ZM29.4253 6.21799L28.7443 4.88148V4.88148L29.4253 6.21799ZM28.5513 7.09202L27.2148 6.41103V6.41103L28.5513 7.09202ZM7.42533 41.782L8.10632 40.4455H8.10632L7.42533 41.782ZM6.5513 40.908L7.88781 40.227H7.88781L6.5513 40.908ZM20.1153 40.908L18.7788 40.227L18.7788 40.227L20.1153 40.908ZM19.2413 41.782L18.5603 40.4455H18.5603L19.2413 41.782ZM19.2413 28.218L18.5603 29.5545H18.5603L19.2413 28.218ZM20.1153 29.092L18.7788 29.773L20.1153 29.092ZM7.42533 28.218L6.74435 26.8815H6.74435L7.42533 28.218ZM6.5513 29.092L5.21479 28.411H5.21479L6.5513 29.092ZM9.53331 7.5H17.1333V4.5H9.53331V7.5ZM18.8333 9.2V16.8H21.8333V9.2H18.8333ZM17.1333 18.5H9.53331V21.5H17.1333V18.5ZM7.83331 16.8V9.2H4.83331V16.8H7.83331ZM9.53331 18.5C8.94851 18.5 8.60012 18.4988 8.34186 18.4777C8.10112 18.4581 8.07353 18.4288 8.10632 18.4455L6.74435 21.1185C7.20496 21.3532 7.6713 21.4329 8.09757 21.4678C8.50632 21.5012 8.99801 21.5 9.53331 21.5V18.5ZM4.83331 16.8C4.83331 17.3353 4.83215 17.827 4.86554 18.2357C4.90037 18.662 4.9801 19.1284 5.21479 19.589L7.88781 18.227C7.90452 18.2598 7.87525 18.2322 7.85558 17.9914C7.83448 17.7332 7.83331 17.3848 7.83331 16.8H4.83331ZM8.10632 18.4455C8.01224 18.3976 7.93575 18.3211 7.88781 18.227L5.21479 19.589C5.55035 20.2475 6.08578 20.783 6.74435 21.1185L8.10632 18.4455ZM18.8333 16.8C18.8333 17.3848 18.8321 17.7332 18.811 17.9914C18.7914 18.2322 18.7621 18.2598 18.7788 18.227L21.4518 19.589C21.6865 19.1284 21.7663 18.662 21.8011 18.2357C21.8345 17.827 21.8333 17.3353 21.8333 16.8H18.8333ZM17.1333 21.5C17.6686 21.5 18.1603 21.5012 18.5691 21.4678C18.9953 21.4329 19.4617 21.3532 19.9223 21.1185L18.5603 18.4455C18.5931 18.4288 18.5655 18.4581 18.3248 18.4777C18.0665 18.4988 17.7181 18.5 17.1333 18.5V21.5ZM18.7788 18.227C18.7309 18.3211 18.6544 18.3976 18.5603 18.4455L19.9223 21.1185C20.5808 20.783 21.1163 20.2475 21.4518 19.589L18.7788 18.227ZM17.1333 7.5C17.7181 7.5 18.0665 7.50117 18.3248 7.52227C18.5655 7.54194 18.5931 7.5712 18.5603 7.5545L19.9223 4.88148C19.4617 4.64678 18.9953 4.56706 18.5691 4.53223C18.1603 4.49883 17.6686 4.5 17.1333 4.5V7.5ZM21.8333 9.2C21.8333 8.6647 21.8345 8.17301 21.8011 7.76426C21.7663 7.33799 21.6865 6.87165 21.4518 6.41103L18.7788 7.773C18.7621 7.74021 18.7914 7.76781 18.811 8.00855C18.8321 8.26681 18.8333 8.6152 18.8333 9.2H21.8333ZM18.5603 7.5545C18.6544 7.60243 18.7309 7.67892 18.7788 7.773L21.4518 6.41103C21.1163 5.75247 20.5808 5.21703 19.9223 4.88148L18.5603 7.5545ZM9.53331 4.5C8.99801 4.5 8.50632 4.49883 8.09757 4.53223C7.6713 4.56706 7.20496 4.64678 6.74435 4.88148L8.10632 7.5545C8.07353 7.5712 8.10112 7.54194 8.34186 7.52227C8.60012 7.50117 8.94851 7.5 9.53331 7.5V4.5ZM7.83331 9.2C7.83331 8.6152 7.83448 8.26681 7.85558 8.00855C7.87525 7.76781 7.90452 7.74021 7.88781 7.773L5.21479 6.41103C4.9801 6.87165 4.90037 7.33799 4.86554 7.76426C4.83215 8.17301 4.83331 8.6647 4.83331 9.2H7.83331ZM6.74435 4.88148C6.08578 5.21703 5.55035 5.75247 5.21479 6.41103L7.88781 7.773C7.93575 7.67892 8.01224 7.60243 8.10632 7.5545L6.74435 4.88148ZM31.5333 7.5H39.1333V4.5H31.5333V7.5ZM40.8333 9.2V16.8H43.8333V9.2H40.8333ZM39.1333 18.5H31.5333V21.5H39.1333V18.5ZM29.8333 16.8V9.2H26.8333V16.8H29.8333ZM31.5333 18.5C30.9485 18.5 30.6001 18.4988 30.3419 18.4777C30.1011 18.4581 30.0735 18.4288 30.1063 18.4455L28.7443 21.1185C29.205 21.3532 29.6713 21.4329 30.0976 21.4678C30.5063 21.5012 30.998 21.5 31.5333 21.5V18.5ZM26.8333 16.8C26.8333 17.3353 26.8321 17.827 26.8655 18.2357C26.9004 18.662 26.9801 19.1284 27.2148 19.589L29.8878 18.227C29.9045 18.2598 29.8752 18.2322 29.8556 17.9914C29.8345 17.7332 29.8333 17.3848 29.8333 16.8H26.8333ZM30.1063 18.4455C30.0122 18.3976 29.9357 18.3211 29.8878 18.227L27.2148 19.589C27.5503 20.2475 28.0858 20.783 28.7443 21.1185L30.1063 18.4455ZM40.8333 16.8C40.8333 17.3848 40.8321 17.7332 40.811 17.9914C40.7914 18.2322 40.7621 18.2598 40.7788 18.227L43.4518 19.589C43.6865 19.1284 43.7663 18.662 43.8011 18.2357C43.8345 17.827 43.8333 17.3353 43.8333 16.8H40.8333ZM39.1333 21.5C39.6686 21.5 40.1603 21.5012 40.5691 21.4678C40.9953 21.4329 41.4617 21.3532 41.9223 21.1185L40.5603 18.4455C40.5931 18.4288 40.5655 18.4581 40.3248 18.4777C40.0665 18.4988 39.7181 18.5 39.1333 18.5V21.5ZM40.7788 18.227C40.7309 18.3211 40.6544 18.3976 40.5603 18.4455L41.9223 21.1185C42.5808 20.783 43.1163 20.2475 43.4518 19.589L40.7788 18.227ZM39.1333 7.5C39.7181 7.5 40.0665 7.50117 40.3248 7.52227C40.5655 7.54194 40.5931 7.5712 40.5603 7.5545L41.9223 4.88148C41.4617 4.64678 40.9953 4.56706 40.5691 4.53223C40.1603 4.49883 39.6686 4.5 39.1333 4.5V7.5ZM43.8333 9.2C43.8333 8.6647 43.8345 8.17301 43.8011 7.76426C43.7663 7.33799 43.6865 6.87165 43.4518 6.41103L40.7788 7.773C40.7621 7.74021 40.7914 7.76781 40.811 8.00855C40.8321 8.26681 40.8333 8.6152 40.8333 9.2H43.8333ZM40.5603 7.5545C40.6544 7.60243 40.7309 7.67892 40.7788 7.773L43.4518 6.41103C43.1163 5.75247 42.5808 5.21703 41.9223 4.88148L40.5603 7.5545ZM31.5333 4.5C30.998 4.5 30.5063 4.49883 30.0976 4.53223C29.6713 4.56706 29.205 4.64678 28.7443 4.88148L30.1063 7.5545C30.0735 7.5712 30.1011 7.54194 30.3419 7.52227C30.6001 7.50117 30.9485 7.5 31.5333 7.5V4.5ZM29.8333 9.2C29.8333 8.6152 29.8345 8.26681 29.8556 8.00855C29.8752 7.76781 29.9045 7.74021 29.8878 7.773L27.2148 6.41103C26.9801 6.87165 26.9004 7.33799 26.8655 7.76426C26.8321 8.17301 26.8333 8.6647 26.8333 9.2H29.8333ZM28.7443 4.88148C28.0858 5.21703 27.5503 5.75247 27.2148 6.41103L29.8878 7.773C29.9357 7.67892 30.0122 7.60243 30.1063 7.5545L28.7443 4.88148ZM9.53331 29.5H17.1333V26.5H9.53331V29.5ZM18.8333 31.2V38.8H21.8333V31.2H18.8333ZM17.1333 40.5H9.53331V43.5H17.1333V40.5ZM7.83331 38.8V31.2H4.83331V38.8H7.83331ZM9.53331 40.5C8.94851 40.5 8.60012 40.4988 8.34186 40.4777C8.10112 40.4581 8.07353 40.4288 8.10632 40.4455L6.74435 43.1185C7.20496 43.3532 7.6713 43.4329 8.09757 43.4678C8.50632 43.5012 8.99801 43.5 9.53331 43.5V40.5ZM4.83331 38.8C4.83331 39.3353 4.83215 39.827 4.86554 40.2357C4.90037 40.662 4.9801 41.1284 5.21479 41.589L7.88781 40.227C7.90452 40.2598 7.87525 40.2322 7.85558 39.9914C7.83448 39.7332 7.83331 39.3848 7.83331 38.8H4.83331ZM8.10632 40.4455C8.01223 40.3976 7.93575 40.3211 7.88781 40.227L5.21479 41.589C5.55035 42.2475 6.08578 42.783 6.74435 43.1185L8.10632 40.4455ZM18.8333 38.8C18.8333 39.3848 18.8321 39.7332 18.811 39.9914C18.7914 40.2322 18.7621 40.2598 18.7788 40.227L21.4518 41.589C21.6865 41.1284 21.7663 40.662 21.8011 40.2357C21.8345 39.827 21.8333 39.3353 21.8333 38.8H18.8333ZM17.1333 43.5C17.6686 43.5 18.1603 43.5012 18.5691 43.4678C18.9953 43.4329 19.4617 43.3532 19.9223 43.1185L18.5603 40.4455C18.5931 40.4288 18.5655 40.4581 18.3248 40.4777C18.0665 40.4988 17.7181 40.5 17.1333 40.5V43.5ZM18.7788 40.227C18.7309 40.3211 18.6544 40.3976 18.5603 40.4455L19.9223 43.1185C20.5808 42.783 21.1163 42.2475 21.4518 41.589L18.7788 40.227ZM17.1333 29.5C17.7181 29.5 18.0665 29.5012 18.3248 29.5223C18.5655 29.5419 18.5931 29.5712 18.5603 29.5545L19.9223 26.8815C19.4617 26.6468 18.9953 26.5671 18.5691 26.5322C18.1603 26.4988 17.6686 26.5 17.1333 26.5V29.5ZM21.8333 31.2C21.8333 30.6647 21.8345 30.173 21.8011 29.7643C21.7663 29.338 21.6865 28.8716 21.4518 28.411L18.7788 29.773C18.7621 29.7402 18.7914 29.7678 18.811 30.0086C18.8321 30.2668 18.8333 30.6152 18.8333 31.2H21.8333ZM18.5603 29.5545C18.6544 29.6024 18.7309 29.6789 18.7788 29.773L21.4518 28.411C21.1163 27.7525 20.5808 27.217 19.9223 26.8815L18.5603 29.5545ZM9.53331 26.5C8.99801 26.5 8.50632 26.4988 8.09757 26.5322C7.6713 26.5671 7.20496 26.6468 6.74435 26.8815L8.10632 29.5545C8.07353 29.5712 8.10112 29.5419 8.34186 29.5223C8.60012 29.5012 8.94851 29.5 9.53331 29.5V26.5ZM7.83331 31.2C7.83331 30.6152 7.83448 30.2668 7.85558 30.0086C7.87525 29.7678 7.90452 29.7402 7.88781 29.773L5.21479 28.411C4.9801 28.8716 4.90037 29.338 4.86554 29.7643C4.83215 30.173 4.83331 30.6647 4.83331 31.2H7.83331ZM6.74435 26.8815C6.08578 27.217 5.55035 27.7525 5.21479 28.411L7.88781 29.773C7.93575 29.6789 8.01224 29.6024 8.10632 29.5545L6.74435 26.8815Z" fill="url(#paint1_linear_63_9860)"/>
<defs>
<linearGradient id="paint0_linear_63_9860" x1="27.9985" y1="28" x2="41.336" y2="42.8324" gradientUnits="userSpaceOnUse">
<stop stop-color="#C95AFF"/>
<stop offset="0.45115" stop-color="#A8F6FF"/>
<stop offset="1" stop-color="#FFCF9E"/>
</linearGradient>
<linearGradient id="paint1_linear_63_9860" x1="5.47244" y1="6" x2="39.7689" y2="44.1405" gradientUnits="userSpaceOnUse">
<stop stop-color="#C95AFF"/>
<stop offset="0.45115" stop-color="#A8F6FF"/>
<stop offset="1" stop-color="#FFCF9E"/>
</linearGradient>
</defs>
</svg>
