<svg
  width="49"
  height="36"
  viewBox="0 0 49 36"
  fill="none"
  xmlns="http://www.w3.org/2000/svg"
>
<path
    d="M1.76178 35.7987L48.5272 8.79866L47.5272 7.06661L0.76178 34.0666L1.76178 35.7987ZM24.6608 1.96802C26.5255 4.29526 29.8935 7.43756 33.9958 9.33722C38.1203 11.2471 43.0899 11.9379 47.9637 9.12396L46.9637 7.39191C42.8226 9.78281 38.5732 9.25283 34.8362 7.52236C31.0772 5.78166 27.9415 2.86394 26.2216 0.717445L24.6608 1.96802ZM43.3729 30.4244C42.3739 27.8617 41.415 23.6872 41.787 19.5614C42.1568 15.4599 43.8226 11.5149 47.9637 9.12396L46.9637 7.39191C42.0899 10.2058 40.2033 14.855 39.7951 19.3818C39.3891 23.8844 40.4264 28.3723 41.5095 31.1508L43.3729 30.4244Z"
    fill="white"
  />
</svg>
