<svg width="42" height="42" viewBox="0 0 42 42" fill="none" xmlns="http://www.w3.org/2000/svg">
<rect width="42" height="42" rx="21" fill="white"/>
<g clip-path="url(#clip0_71_9858)">
<path fill-rule="evenodd" clip-rule="evenodd" d="M24.0029 13C24.7472 13 25.5322 13.2598 26.2531 13.5466L26.7801 13.7633C28.04 14.2913 28.7482 15.3988 29.2973 16.6161C30.188 18.5908 30.8065 21.2238 31.0207 23.2256C31.1225 24.1766 31.1481 25.1321 30.9645 25.7747C30.7681 26.4617 30.0973 26.9478 29.4464 27.3303L29.1249 27.5134L28.7905 27.6986C28.6184 27.7947 28.4419 27.8901 28.2658 27.9831L27.7434 28.2532L27.0269 28.6105L26.4501 28.8944C25.9562 29.1414 25.3555 28.9412 25.1085 28.4472C24.8615 27.9532 25.0617 27.3526 25.5557 27.1056L26.3467 26.7158L25.7661 26.1071C24.3763 26.6777 22.7387 27 20.9999 27C19.261 27 17.6234 26.6777 16.2335 26.1071L15.6539 26.7148L16.447 27.1056C16.941 27.3526 17.1412 27.9532 16.8942 28.4472C16.6472 28.9412 16.0466 29.1414 15.5526 28.8944L15.009 28.6247C14.6063 28.4256 14.2036 28.2265 13.8055 28.0185L12.8778 27.5134L12.5563 27.3303C11.9055 26.9478 11.2345 26.4617 11.0383 25.7747C10.8547 25.1321 10.8803 24.1766 10.982 23.2256C11.1962 21.2238 11.8147 18.5908 12.7054 16.6161C13.2545 15.3988 13.9627 14.2913 15.2226 13.7633C16.0588 13.4128 17.0715 13 17.9998 13C18.6028 13 19.0765 13.5552 18.989 14.1473C19.6364 14.0508 20.3097 14 20.9999 14C21.6912 14 22.3655 14.0509 23.0138 14.1477C22.9261 13.5556 23.3998 13 24.0029 13ZM17.7498 19.5C16.7833 19.5 15.9998 20.2835 15.9998 21.25C15.9998 22.2165 16.7833 23 17.7498 23C18.7163 23 19.4999 22.2165 19.4999 21.25C19.4999 20.2835 18.7163 19.5 17.7498 19.5ZM24.2499 19.5C23.2834 19.5 22.4999 20.2835 22.4999 21.25C22.4999 22.2165 23.2834 23 24.2499 23C25.2164 23 25.9999 22.2165 25.9999 21.25C25.9999 20.2835 25.2164 19.5 24.2499 19.5Z" fill="#17172F"/>
</g>
<defs>
<clipPath id="clip0_71_9858">
<rect width="24" height="24" fill="white" transform="translate(9 9)"/>
</clipPath>
</defs>
</svg>
