<svg width="42" height="42" viewBox="0 0 42 42" fill="none" xmlns="http://www.w3.org/2000/svg">
<rect width="42" height="42" rx="21" fill="white"/>
<g clip-path="url(#clip0_71_9872)">
<path d="M16.0238 11.3106C16.6425 11.521 17.4077 11.8563 18.1489 12.3561C19.0471 12.1245 20.0063 12 21.0003 12C21.9932 12 22.9515 12.1243 23.849 12.3554C24.59 11.8558 25.3551 11.5207 25.9735 11.3104C26.6704 11.0735 27.6637 10.6887 28.2534 11.342C28.6538 11.7856 28.7531 12.53 28.8245 13.0975C28.9043 13.7317 28.9229 14.5584 28.713 15.378C29.5159 16.4148 30.0003 17.6524 30.0003 19C30.0003 21.0422 28.8942 22.8148 27.2571 24.0426C26.5036 24.6077 25.6276 25.0673 24.6669 25.3988C24.8813 25.8891 25.0003 26.4307 25.0003 27V30C25.0003 30.5523 24.5525 31 24.0003 31H18.0003C17.448 31 17.0003 30.5523 17.0003 30V29.0087C16.045 29.1257 15.2444 29.0222 14.5628 28.7331C13.8511 28.4311 13.3549 27.9627 12.9821 27.5152C12.6284 27.0908 12.2427 26.1349 11.684 25.9487C11.1601 25.774 10.8769 25.2077 11.0516 24.6838C11.2262 24.1598 11.7926 23.8767 12.3165 24.0513C12.9823 24.2732 13.4158 24.7534 13.7134 25.1386C14.1925 25.7585 14.5839 26.5695 15.3439 26.8919C15.6565 27.0245 16.1157 27.1125 16.8325 27.0137L17.0003 26.9802C17.0031 26.4181 17.1217 25.8834 17.3337 25.3988C16.373 25.0673 15.4969 24.6077 14.7434 24.0426C13.1063 22.8148 12.0003 21.0422 12.0003 19C12.0003 17.654 12.4835 16.4176 13.2847 15.3816C13.074 14.5613 13.0924 13.7338 13.1722 13.099C13.1738 13.0862 13.1754 13.0734 13.177 13.0606C13.2499 12.4791 13.3357 11.7938 13.7433 11.3422C14.3329 10.6888 15.327 11.0736 16.0238 11.3106Z" fill="#17172F"/>
</g>
<defs>
<clipPath id="clip0_71_9872">
<rect width="24" height="24" fill="white" transform="translate(9 9)"/>
</clipPath>
</defs>
</svg>
