<svg width="18" height="18" viewBox="0 0 18 18" fill="none" xmlns="http://www.w3.org/2000/svg">
<path d="M4.06454 5.91846H0.303352V17.9127H4.06454V5.91846Z" fill="#98A2B3"/>
<path d="M14.2388 5.65859C14.1001 5.64126 13.9528 5.63259 13.8055 5.62392C11.6996 5.53726 10.5123 6.78521 10.0963 7.32252C9.98364 7.46985 9.93164 7.55652 9.93164 7.55652V5.95324H6.33511V17.9475H9.93164H10.0963C10.0963 16.7255 10.0963 15.5122 10.0963 14.2903C10.0963 13.6316 10.0963 12.973 10.0963 12.3143C10.0963 11.4997 10.0356 10.6331 10.443 9.88776C10.7896 9.26378 11.4136 8.9518 12.1156 8.9518C14.1955 8.9518 14.2388 10.8324 14.2388 11.0057C14.2388 11.0144 14.2388 11.023 14.2388 11.023V17.9994H18V10.1737C18 7.49585 16.6394 5.91858 14.2388 5.65859Z" fill="#98A2B3"/>
<path d="M2.18391 4.36783C3.39006 4.36783 4.36784 3.39006 4.36784 2.18392C4.36784 0.977773 3.39006 0 2.18391 0C0.977769 0 0 0.977773 0 2.18392C0 3.39006 0.977769 4.36783 2.18391 4.36783Z" fill="#98A2B3"/>
</svg>
