<svg width="49" height="48" viewBox="0 0 49 48" fill="none" xmlns="http://www.w3.org/2000/svg">
<path opacity="0.6" d="M33.6667 19L15.6667 9" stroke="url(#paint0_linear_63_9849)" stroke-width="2" stroke-linecap="round" stroke-linejoin="round"/>
<path d="M42.5657 33.4506L43.99 33.9212L42.5657 33.4506ZM41.0207 34.9144L41.7492 36.2256L41.0207 34.9144ZM42.1374 34.1785L43.2404 35.195L42.1374 34.1785ZM23.1126 43.1366L22.3841 44.4479L23.1126 43.1366ZM24.2638 43.6711L24.5659 42.2018L24.2638 43.6711ZM26.2207 43.1366L25.4923 41.8254L26.2207 43.1366ZM25.0696 43.6711L25.3717 45.1403L25.0696 43.6711ZM6.76763 14.5494L5.34335 14.0788L6.76763 14.5494ZM8.3126 13.0856L9.04106 14.3968L8.3126 13.0856ZM7.19592 13.8215L6.09287 12.805L7.19592 13.8215ZM6.76763 33.4506L5.34335 33.9212L6.76763 33.4506ZM8.3126 34.9144L7.58414 36.2256L8.3126 34.9144ZM7.19592 34.1785L8.29897 33.162L7.19592 34.1785ZM41.0207 13.0856L41.7492 11.7743L41.0207 13.0856ZM42.1374 13.8215L41.0343 14.838L42.1374 13.8215ZM42.5657 14.5494L43.99 14.0788L42.5657 14.5494ZM26.2207 4.86335L25.4923 6.17459L26.2207 4.86335ZM25.0696 4.32891L24.7674 5.79815L25.0696 4.32891ZM23.1126 4.86335L22.3841 3.55212L23.1126 4.86335ZM24.2638 4.32891L24.5659 5.79815L24.2638 4.32891ZM23.1667 43C23.1667 43.8284 23.8382 44.5 24.6667 44.5C25.4951 44.5 26.1667 43.8284 26.1667 43L23.1667 43ZM8.39506 13.2442C7.67088 12.8419 6.75767 13.1028 6.35536 13.827C5.95304 14.5512 6.21395 15.4644 6.93813 15.8667L8.39506 13.2442ZM42.3951 15.8667C43.1192 15.4644 43.3801 14.5512 42.9778 13.827C42.5755 13.1028 41.6623 12.8419 40.9381 13.2442L42.3951 15.8667ZM25.4923 6.17459L40.2923 14.3968L41.7492 11.7743L26.9492 3.55211L25.4923 6.17459ZM8.16666 32.1171V15.8829H5.16666V32.1171H8.16666ZM9.04106 14.3968L23.8411 6.17459L22.3841 3.55212L7.58413 11.7743L9.04106 14.3968ZM23.8411 41.8254L9.04107 33.6032L7.58414 36.2256L22.3841 44.4479L23.8411 41.8254ZM41.1667 15.8829V32.1171H44.1667V15.8829H41.1667ZM40.2923 33.6032L25.4923 41.8254L26.9492 44.4479L41.7492 36.2256L40.2923 33.6032ZM41.1667 32.1171C41.1667 32.4772 41.166 32.6819 41.1568 32.836C41.1485 32.9729 41.1366 32.9946 41.1414 32.98L43.99 33.9212C44.1847 33.3319 44.1667 32.6992 44.1667 32.1171H41.1667ZM41.7492 36.2256C42.258 35.943 42.8199 35.6514 43.2404 35.195L41.0343 33.162C41.0448 33.1507 41.0315 33.1717 40.9159 33.2453C40.7857 33.3283 40.6071 33.4283 40.2923 33.6032L41.7492 36.2256ZM41.1414 32.98C41.1191 33.0476 41.0826 33.1097 41.0343 33.162L43.2404 35.195C43.5781 34.8286 43.8336 34.3943 43.99 33.9212L41.1414 32.98ZM22.3841 44.4479C22.8664 44.7158 23.3827 45.0212 23.9616 45.1403L24.5659 42.2018C24.5797 42.2046 24.5562 42.2039 24.4399 42.1478C24.3085 42.0844 24.1393 41.9911 23.8411 41.8254L22.3841 44.4479ZM25.4923 41.8254C25.194 41.9911 25.0248 42.0844 24.8934 42.1478C24.7772 42.2039 24.7536 42.2046 24.7674 42.2018L25.3717 45.1403C25.9507 45.0212 26.4669 44.7158 26.9492 44.4479L25.4923 41.8254ZM23.9616 45.1403C24.4268 45.236 24.9066 45.236 25.3717 45.1403L24.7674 42.2018C24.7009 42.2155 24.6324 42.2155 24.5659 42.2018L23.9616 45.1403ZM8.16666 15.8829C8.16666 15.5227 8.16728 15.318 8.17656 15.1639C8.1848 15.0271 8.19672 15.0054 8.1919 15.0199L5.34335 14.0788C5.14865 14.6681 5.16666 15.3008 5.16666 15.8829H8.16666ZM7.58413 11.7743C7.07533 12.057 6.51345 12.3486 6.09287 12.805L8.29897 14.838C8.28857 14.8493 8.3018 14.8283 8.4174 14.7546C8.5476 14.6717 8.72625 14.5717 9.04106 14.3968L7.58413 11.7743ZM8.1919 15.0199C8.21423 14.9523 8.25074 14.8903 8.29897 14.838L6.09287 12.805C5.75521 13.1714 5.49967 13.6057 5.34335 14.0788L8.1919 15.0199ZM5.16666 32.1171C5.16666 32.6991 5.14865 33.3319 5.34335 33.9212L8.1919 32.98C8.19672 32.9946 8.1848 32.9729 8.17656 32.836C8.16728 32.6819 8.16666 32.4772 8.16666 32.1171H5.16666ZM9.04107 33.6032C8.72626 33.4283 8.5476 33.3283 8.4174 33.2453C8.3018 33.1717 8.28857 33.1507 8.29897 33.162L6.09287 35.195C6.51345 35.6514 7.07533 35.943 7.58414 36.2256L9.04107 33.6032ZM5.34335 33.9212C5.49967 34.3943 5.75521 34.8286 6.09287 35.195L8.29897 33.162C8.25073 33.1097 8.21423 33.0476 8.1919 32.98L5.34335 33.9212ZM40.2923 14.3968C40.6071 14.5717 40.7857 14.6717 40.9159 14.7546C41.0315 14.8283 41.0447 14.8492 41.0343 14.838L43.2404 12.8049C42.8199 12.3486 42.258 12.057 41.7492 11.7743L40.2923 14.3968ZM44.1667 15.8829C44.1667 15.3008 44.1847 14.6681 43.99 14.0788L41.1414 15.0199C41.1366 15.0054 41.1485 15.0271 41.1568 15.1639C41.166 15.318 41.1667 15.5227 41.1667 15.8829H44.1667ZM41.0343 14.838C41.0826 14.8903 41.1191 14.9523 41.1414 15.0199L43.99 14.0788C43.8336 13.6057 43.5781 13.1714 43.2404 12.8049L41.0343 14.838ZM26.9492 3.55211C26.4669 3.28418 25.9507 2.97872 25.3717 2.85966L24.7674 5.79815C24.7536 5.79532 24.7772 5.79611 24.8934 5.85219C25.0248 5.91556 25.194 6.00891 25.4923 6.17459L26.9492 3.55211ZM23.8411 6.17459C24.1393 6.00891 24.3085 5.91556 24.4399 5.85219C24.5562 5.79611 24.5797 5.79532 24.5659 5.79815L23.9616 2.85966C23.3827 2.97872 22.8664 3.28418 22.3841 3.55212L23.8411 6.17459ZM25.3717 2.85966C24.9066 2.76398 24.4268 2.76398 23.9616 2.85966L24.5659 5.79815C24.6324 5.78449 24.7009 5.78449 24.7674 5.79815L25.3717 2.85966ZM23.1666 23.9999L23.1667 43L26.1667 43L26.1666 23.9999L23.1666 23.9999ZM25.3951 22.6887L8.39506 13.2442L6.93813 15.8667L23.9381 25.3112L25.3951 22.6887ZM40.9381 13.2442L23.9381 22.6887L25.3951 25.3112L42.3951 15.8667L40.9381 13.2442Z" fill="url(#paint1_linear_63_9849)"/>
<defs>
<linearGradient id="paint0_linear_63_9849" x1="15.2362" y1="9" x2="22.8967" y2="24.3343" gradientUnits="userSpaceOnUse">
<stop stop-color="#C95AFF"/>
<stop offset="0.45115" stop-color="#A8F6FF"/>
<stop offset="1" stop-color="#FFCF9E"/>
</linearGradient>
<linearGradient id="paint1_linear_63_9849" x1="5.80579" y1="4.2879" x2="43.572" y2="42.6393" gradientUnits="userSpaceOnUse">
<stop stop-color="#C95AFF"/>
<stop offset="0.45115" stop-color="#A8F6FF"/>
<stop offset="1" stop-color="#FFCF9E"/>
</linearGradient>
</defs>
</svg>
