<svg width="47" height="61" viewBox="0 0 47 61" fill="none" xmlns="http://www.w3.org/2000/svg">
<path d="M25.5908 37.2584C25.0662 37.2307 24.6369 36.8884 24.4577 36.4131C24.0715 37.2861 23.7215 38.2146 23.4177 39.1907C22.6046 37.3554 21.4108 35.6154 19.8446 34.09C16.5331 30.8631 12.0615 29.06 7.76922 29.2554C7.11383 29.2815 6.58229 29.7938 6.52845 30.4454C6.19152 34.5723 7.92383 38.8184 11.2854 42.0961C14.3131 45.0469 18.2823 46.7731 22.2485 46.9177C22.2454 48.7307 22.4169 50.6584 22.8131 52.7023C22.9331 53.3215 23.4769 53.7523 24.0854 53.7523C24.1677 53.7523 24.2523 53.7446 24.3346 53.7284C25.0392 53.5915 25.4992 52.9107 25.3623 52.2061C24.1631 46.0384 25.1462 41.0646 26.8569 37.2407C26.6646 37.2484 26.4754 37.2754 26.2831 37.2754C26.0523 37.2754 25.8208 37.2692 25.5908 37.2584Z" fill="white"/>
<path d="M25.5908 37.2584C25.0662 37.2307 24.6369 36.8884 24.4577 36.4131C24.0715 37.2861 23.7215 38.2146 23.4177 39.1907C22.6046 37.3554 21.4108 35.6154 19.8446 34.09C16.5331 30.8631 12.0615 29.06 7.76922 29.2554C7.11383 29.2815 6.58229 29.7938 6.52845 30.4454C6.19152 34.5723 7.92383 38.8184 11.2854 42.0961C14.3131 45.0469 18.2823 46.7731 22.2485 46.9177C22.2454 48.7307 22.4169 50.6584 22.8131 52.7023C22.9331 53.3215 23.4769 53.7523 24.0854 53.7523C24.1677 53.7523 24.2523 53.7446 24.3346 53.7284C25.0392 53.5915 25.4992 52.9107 25.3623 52.2061C24.1631 46.0384 25.1462 41.0646 26.8569 37.2407C26.6646 37.2484 26.4754 37.2754 26.2831 37.2754C26.0523 37.2754 25.8208 37.2692 25.5908 37.2584Z" fill="url(#paint0_linear_2_42)"/>
<path d="M23.4062 60.9008C36.02 60.9008 46.2815 50.6438 46.2815 38.0338C46.2815 36.1261 45.7815 33.8454 44.7938 31.2538C44.5385 30.5823 43.7885 30.2469 43.1185 30.5023C42.4485 30.7577 42.1115 31.5077 42.3669 32.1777C43.2415 34.4731 43.6846 36.4446 43.6846 38.0338C43.6846 49.2115 34.5877 58.3062 23.4054 58.3062C12.2154 58.3062 3.11077 49.2123 3.11077 38.0354C3.12307 28.1492 19.2438 8.69614 23.4054 3.83845C25.3392 6.09229 29.8492 11.4923 34.11 17.61C32.1238 18.6292 30.2862 20.0769 28.7346 21.8985C25.3154 25.9061 23.7238 31.0931 24.3669 36.1261C24.3808 36.2292 24.4223 36.32 24.4569 36.4131C27.6769 29.1392 33.2823 25.4538 33.3708 25.3977C33.9777 25.0108 34.7785 25.1877 35.1646 25.7923C35.5508 26.3946 35.3746 27.1969 34.7708 27.5838C34.4462 27.7923 29.6669 30.9608 26.8561 37.2408C31.2085 37.0646 35.4485 34.9269 38.5677 31.2761C41.9869 27.2608 43.5785 22.0754 42.9292 17.0485C42.8485 16.4254 42.3346 15.95 41.7077 15.9184C39.9738 15.8269 38.2369 16.0661 36.5631 16.5969C30.7908 8.2346 24.4415 1.06922 24.3769 0.996139C24.1308 0.719216 23.7777 0.561523 23.4062 0.561523C23.0346 0.561523 22.6838 0.719216 22.4369 0.996139C21.5431 2.00152 0.530765 25.7585 0.515381 38.0346C0.515381 50.6438 10.7846 60.9008 23.4062 60.9008Z" fill="white"/>
<path d="M23.4062 60.9008C36.02 60.9008 46.2815 50.6438 46.2815 38.0338C46.2815 36.1261 45.7815 33.8454 44.7938 31.2538C44.5385 30.5823 43.7885 30.2469 43.1185 30.5023C42.4485 30.7577 42.1115 31.5077 42.3669 32.1777C43.2415 34.4731 43.6846 36.4446 43.6846 38.0338C43.6846 49.2115 34.5877 58.3062 23.4054 58.3062C12.2154 58.3062 3.11077 49.2123 3.11077 38.0354C3.12307 28.1492 19.2438 8.69614 23.4054 3.83845C25.3392 6.09229 29.8492 11.4923 34.11 17.61C32.1238 18.6292 30.2862 20.0769 28.7346 21.8985C25.3154 25.9061 23.7238 31.0931 24.3669 36.1261C24.3808 36.2292 24.4223 36.32 24.4569 36.4131C27.6769 29.1392 33.2823 25.4538 33.3708 25.3977C33.9777 25.0108 34.7785 25.1877 35.1646 25.7923C35.5508 26.3946 35.3746 27.1969 34.7708 27.5838C34.4462 27.7923 29.6669 30.9608 26.8561 37.2408C31.2085 37.0646 35.4485 34.9269 38.5677 31.2761C41.9869 27.2608 43.5785 22.0754 42.9292 17.0485C42.8485 16.4254 42.3346 15.95 41.7077 15.9184C39.9738 15.8269 38.2369 16.0661 36.5631 16.5969C30.7908 8.2346 24.4415 1.06922 24.3769 0.996139C24.1308 0.719216 23.7777 0.561523 23.4062 0.561523C23.0346 0.561523 22.6838 0.719216 22.4369 0.996139C21.5431 2.00152 0.530765 25.7585 0.515381 38.0346C0.515381 50.6438 10.7846 60.9008 23.4062 60.9008Z" fill="url(#paint1_linear_2_42)"/>
<defs>
<linearGradient id="paint0_linear_2_42" x1="7.4345" y1="31.5211" x2="29.078" y2="51.1643" gradientUnits="userSpaceOnUse">
<stop stop-color="#C95AFF"/>
<stop offset="0.46875" stop-color="#A6F5FF"/>
<stop offset="1" stop-color="#FFCF9E"/>
</linearGradient>
<linearGradient id="paint1_linear_2_42" x1="2.64404" y1="6.17448" x2="55.2387" y2="49.7408" gradientUnits="userSpaceOnUse">
<stop stop-color="#C95AFF"/>
<stop offset="0.46875" stop-color="#A6F5FF"/>
<stop offset="1" stop-color="#FFCF9E"/>
</linearGradient>
</defs>
</svg>
