<svg width="42" height="42" viewBox="0 0 42 42" fill="none" xmlns="http://www.w3.org/2000/svg">
<rect width="42" height="42" rx="21" fill="white"/>
<g clip-path="url(#clip0_71_9883)">
<path d="M21 11C26.5228 11 31 15.4771 31 21C31 26.5228 26.5228 31 21 31C15.4771 31 11 26.5228 11 21C11 15.4771 15.4771 11 21 11ZM24 15C23.7007 15 23.4321 15.1315 23.2488 15.3399L21.5981 15.0097C21.4633 14.9828 21.3234 15.0125 21.2112 15.0918C21.099 15.1712 21.0245 15.2932 21.005 15.4293L20.6366 18.008C19.2143 18.0708 17.8981 18.5009 16.891 19.2059C16.6988 19.3405 16.5155 19.4871 16.344 19.6449C16.1489 19.552 15.9305 19.5 15.7 19.5C14.8716 19.5 14.2 20.1716 14.2 21C14.2 21.5773 14.5261 22.0784 15.0041 22.3291L15 22.5C15 23.8824 15.8018 25.0316 16.891 25.7941C17.9834 26.5588 19.4393 27 21 27C22.5607 27 24.0166 26.5588 25.109 25.7941C26.1982 25.0316 27 23.8824 27 22.5L26.9959 22.3291C27.4739 22.0784 27.8 21.5773 27.8 21C27.8 20.1716 27.1284 19.5 26.3 19.5C26.0695 19.5 25.8511 19.552 25.656 19.6449C25.4845 19.4871 25.3012 19.3405 25.109 19.2059C24.1685 18.5476 22.9586 18.129 21.6443 18.0253L21.9202 16.0939L23.0524 16.3204C23.186 16.7155 23.5598 17 24 17C24.5523 17 25 16.5523 25 16C25 15.4477 24.5523 15 24 15ZM18.5 21C19.3284 21 20 21.6716 20 22.5C20 23.3284 19.3284 24 18.5 24C17.6716 24 17 23.3284 17 22.5C17 21.6716 17.6716 21 18.5 21ZM23.5 21C24.3284 21 25 21.6716 25 22.5C25 23.3284 24.3284 24 23.5 24C22.6716 24 22 23.3284 22 22.5C22 21.6716 22.6716 21 23.5 21Z" fill="#17172F"/>
</g>
<defs>
<clipPath id="clip0_71_9883">
<rect width="24" height="24" fill="white" transform="translate(9 9)"/>
</clipPath>
</defs>
</svg>
