<svg width="42" height="42" viewBox="0 0 42 42" fill="none" xmlns="http://www.w3.org/2000/svg">
<rect width="42" height="42" rx="21" fill="white"/>
<g clip-path="url(#clip0_69_9955)">
<path fill-rule="evenodd" clip-rule="evenodd" d="M28.7773 13.4298C29.8652 12.9718 31.0315 13.8917 30.8394 15.0564L28.5705 28.8131C28.3517 30.1395 26.8949 30.9006 25.678 30.2396C24.6597 29.6865 23.1489 28.8352 21.7873 27.9455C21.1074 27.5012 19.0255 26.0766 19.2814 25.0625C19.5002 24.1954 23.0001 20.9375 25.0001 19C25.7857 18.2389 25.4279 17.7993 24.5001 18.5C22.1985 20.2383 18.5033 22.8812 17.2814 23.625C16.2032 24.2812 15.6403 24.3932 14.9689 24.2812C13.7427 24.0769 12.606 23.7605 11.6779 23.3758C10.4235 22.8558 10.4846 21.132 11.677 20.63L28.7773 13.4298Z" fill="#17172F"/>
</g>
<defs>
<clipPath id="clip0_69_9955">
<rect width="24" height="24" fill="white" transform="translate(9 9)"/>
</clipPath>
</defs>
</svg>
