<svg width="250" height="250" viewBox="0 0 250 250" fill="none" xmlns="http://www.w3.org/2000/svg">
<path d="M57.2697 177.524L65.0895 171.004L69.4834 176.273L68.1202 177.409L65.105 173.794L63.2417 175.347L66.0309 178.692L64.6678 179.829L61.8786 176.484L60.0115 178.041L63.0394 181.672L61.6763 182.809L57.2697 177.524Z" fill="white"/>
<path d="M74.9757 181.689L74.3252 185.669L74.3862 185.72L78.1949 184.381L80.06 185.94L74.4108 187.853L73.5826 193.796L71.6832 192.208L72.3102 188.203L72.2492 188.152L68.4182 189.478L66.5264 187.897L72.2367 186.035L73.103 180.124L74.9757 181.689Z" fill="white"/>
<path d="M79.9099 198.161L84.8891 189.28L88.3931 191.244C89.0667 191.622 89.5684 192.072 89.8983 192.595C90.2298 193.115 90.3926 193.672 90.3868 194.266C90.3854 194.858 90.2194 195.448 89.8888 196.038C89.5581 196.628 89.1392 197.077 88.6319 197.385C88.1247 197.694 87.5591 197.838 86.9353 197.819C86.3144 197.802 85.6628 197.602 84.9805 197.219L82.7472 195.967L83.5908 194.462L85.5206 195.544C85.882 195.747 86.2146 195.852 86.5185 195.859C86.8268 195.864 87.1012 195.788 87.3417 195.63C87.5867 195.471 87.791 195.246 87.9547 194.954C88.12 194.659 88.205 194.368 88.2097 194.082C88.2188 193.795 88.1389 193.524 87.9699 193.27C87.8025 193.012 87.5367 192.782 87.1725 192.577L85.9062 191.867L81.7876 199.214L79.9099 198.161Z" fill="white"/>
<path d="M93.6137 205.064L97.0433 195.477L99.0702 196.202L96.2385 204.118L100.348 205.588L99.7506 207.26L93.6137 205.064Z" fill="white"/>
<path d="M116.439 205.67C116.251 206.764 115.883 207.66 115.337 208.356C114.793 209.053 114.13 209.543 113.349 209.826C112.571 210.106 111.739 210.169 110.854 210.017C109.962 209.864 109.197 209.524 108.558 208.997C107.918 208.471 107.459 207.788 107.179 206.95C106.9 206.111 106.853 205.147 107.041 204.056C107.229 202.961 107.595 202.066 108.138 201.369C108.681 200.672 109.342 200.183 110.12 199.903C110.898 199.62 111.734 199.555 112.625 199.708C113.511 199.86 114.273 200.2 114.912 200.727C115.555 201.251 116.017 201.932 116.296 202.77C116.579 203.609 116.627 204.576 116.439 205.67ZM114.288 205.301C114.409 204.592 114.406 203.976 114.277 203.453C114.152 202.93 113.92 202.51 113.581 202.193C113.242 201.876 112.816 201.673 112.303 201.585C111.79 201.497 111.321 201.546 110.896 201.731C110.47 201.917 110.109 202.235 109.814 202.686C109.521 203.136 109.314 203.716 109.192 204.425C109.07 205.134 109.072 205.75 109.197 206.272C109.326 206.795 109.56 207.216 109.899 207.533C110.238 207.85 110.664 208.053 111.177 208.141C111.689 208.229 112.159 208.18 112.584 207.994C113.009 207.808 113.368 207.49 113.661 207.039C113.957 206.589 114.166 206.009 114.288 205.301Z" fill="white"/>
<path d="M122.61 211.175L122.455 200.994L126.471 200.933C127.24 200.922 127.898 201.049 128.446 201.316C128.997 201.579 129.419 201.959 129.711 202.455C130.007 202.948 130.16 203.531 130.171 204.203C130.181 204.879 130.044 205.463 129.76 205.955C129.476 206.443 129.059 206.821 128.509 207.088C127.963 207.355 127.299 207.494 126.517 207.506L123.827 207.547L123.801 205.817L126.142 205.781C126.553 205.775 126.894 205.713 127.164 205.597C127.434 205.48 127.633 205.308 127.763 205.08C127.895 204.853 127.959 204.572 127.954 204.237C127.948 203.899 127.876 203.615 127.737 203.385C127.601 203.155 127.394 202.983 127.117 202.868C126.844 202.749 126.5 202.693 126.086 202.699L124.634 202.721L124.762 211.142L122.61 211.175ZM128.037 206.458L130.638 211.053L128.262 211.089L125.716 206.494L128.037 206.458Z" fill="white"/>
<path d="M137.94 210.28L136.031 200.278L142.77 198.992L143.102 200.735L138.478 201.618L138.933 204.001L143.211 203.185L143.544 204.928L139.266 205.745L139.722 208.133L144.366 207.246L144.698 208.989L137.94 210.28Z" fill="white"/>
<path d="M162.127 202.917L160.076 203.973L158.538 193.312L161.005 192.042L168.787 199.486L166.737 200.542L160.872 194.727L160.802 194.763L162.127 202.917ZM160.166 199.425L165.01 196.93L165.78 198.424L160.936 200.919L160.166 199.425Z" fill="white"/>
<path d="M174.793 195.594L168.543 187.557L171.714 185.09C172.321 184.618 172.923 184.324 173.521 184.208C174.12 184.086 174.685 184.136 175.217 184.356C175.75 184.571 176.223 184.945 176.636 185.476C177.051 186.009 177.293 186.558 177.362 187.122C177.429 187.683 177.323 188.235 177.045 188.779C176.769 189.321 176.323 189.832 175.705 190.312L173.582 191.963L172.52 190.598L174.369 189.16C174.693 188.908 174.928 188.654 175.073 188.398C175.219 188.142 175.274 187.885 175.241 187.625C175.21 187.364 175.091 187.101 174.886 186.837C174.678 186.57 174.45 186.387 174.2 186.287C173.953 186.185 173.684 186.172 173.394 186.246C173.104 186.317 172.795 186.479 172.468 186.733L171.322 187.624L176.493 194.272L174.793 195.594ZM176.289 188.561L181.131 190.665L179.256 192.124L174.457 189.986L176.289 188.561Z" fill="white"/>
<path d="M180.004 180.337L178.682 179.153L184.261 172.924L185.583 174.108L183.503 176.43L189.766 182.039L188.346 183.624L182.084 178.015L180.004 180.337Z" fill="white"/>
<path d="M197.606 171.828L187.325 169.285L188.496 167.246L195.471 169.306L195.513 169.233L190.303 164.098L191.305 162.352L198.377 164.273L198.422 164.196L193.112 159.205L194.283 157.165L201.663 164.761L200.618 166.58L193.88 164.948L193.84 165.017L198.651 170.008L197.606 171.828Z" fill="white"/>
<path d="M203.732 145.159C204.791 145.494 205.628 145.979 206.244 146.615C206.861 147.247 207.257 147.97 207.431 148.783C207.603 149.591 207.554 150.424 207.284 151.281C207.011 152.143 206.571 152.856 205.962 153.418C205.354 153.98 204.615 154.343 203.747 154.507C202.878 154.67 201.916 154.586 200.861 154.252C199.802 153.918 198.964 153.434 198.347 152.802C197.73 152.169 197.335 151.448 197.163 150.64C196.988 149.83 197.036 148.994 197.309 148.131C197.579 147.274 198.019 146.565 198.627 146.003C199.233 145.437 199.971 145.072 200.839 144.908C201.709 144.741 202.673 144.825 203.732 145.159ZM203.075 147.241C202.389 147.024 201.778 146.944 201.242 147.001C200.707 147.054 200.26 147.228 199.9 147.521C199.54 147.814 199.281 148.208 199.125 148.704C198.968 149.201 198.953 149.672 199.079 150.119C199.206 150.565 199.472 150.966 199.878 151.32C200.285 151.671 200.832 151.954 201.518 152.171C202.204 152.388 202.814 152.469 203.349 152.415C203.885 152.359 204.332 152.184 204.693 151.891C205.053 151.598 205.311 151.203 205.468 150.707C205.625 150.211 205.64 149.74 205.513 149.293C205.386 148.846 205.12 148.448 204.712 148.097C204.306 147.742 203.76 147.457 203.075 147.241Z" fill="white"/>
<path d="M210.021 139.792L199.913 138.568L200.395 134.58C200.488 133.817 200.703 133.182 201.042 132.676C201.377 132.165 201.81 131.799 202.342 131.576C202.87 131.349 203.468 131.277 204.136 131.358C204.807 131.439 205.367 131.653 205.816 132.002C206.261 132.349 206.579 132.813 206.769 133.394C206.959 133.971 207.008 134.648 206.914 135.425L206.59 138.095L204.873 137.887L205.154 135.562C205.204 135.154 205.189 134.809 205.109 134.525C205.03 134.242 204.887 134.021 204.679 133.862C204.472 133.7 204.202 133.599 203.869 133.559C203.534 133.518 203.243 133.551 202.996 133.658C202.75 133.762 202.551 133.943 202.399 134.202C202.245 134.457 202.143 134.79 202.093 135.202L201.918 136.643L210.279 137.655L210.021 139.792ZM206.081 133.777L210.986 131.821L210.7 134.18L205.802 136.081L206.081 133.777Z" fill="white"/>
<path d="M211.23 124.466L201.066 125.065L200.939 122.916L205.421 122.652L205.413 122.518L200.716 119.124L200.564 116.549L205.337 120.052L210.725 115.905L210.877 118.475L206.862 121.506L208.215 122.487L211.104 122.317L211.23 124.466Z" fill="white"/>
<path d="M201.332 105.514C200.952 105.648 200.689 105.887 200.545 106.233C200.4 106.578 200.389 107.002 200.511 107.505C200.594 107.846 200.712 108.123 200.866 108.334C201.017 108.547 201.191 108.695 201.389 108.78C201.586 108.862 201.791 108.877 202.003 108.825C202.182 108.789 202.328 108.714 202.44 108.602C202.552 108.486 202.639 108.344 202.7 108.175C202.758 108.008 202.8 107.82 202.824 107.613C202.846 107.406 202.854 107.189 202.85 106.962L202.847 106.021C202.839 105.566 202.871 105.139 202.945 104.739C203.018 104.339 203.14 103.979 203.311 103.657C203.482 103.336 203.71 103.064 203.993 102.842C204.276 102.616 204.623 102.452 205.035 102.349C205.641 102.205 206.204 102.232 206.722 102.43C207.237 102.625 207.687 102.98 208.071 103.494C208.451 104.005 208.738 104.664 208.934 105.469C209.128 106.268 209.175 106.993 209.074 107.645C208.972 108.294 208.722 108.842 208.322 109.291C207.919 109.737 207.364 110.054 206.656 110.243L206.164 108.219C206.49 108.116 206.744 107.953 206.926 107.732C207.103 107.508 207.214 107.241 207.258 106.93C207.298 106.617 207.274 106.28 207.186 105.919C207.1 105.565 206.974 105.27 206.807 105.034C206.64 104.795 206.447 104.625 206.228 104.525C206.01 104.424 205.781 104.403 205.543 104.461C205.321 104.515 205.15 104.626 205.03 104.795C204.91 104.961 204.828 105.182 204.782 105.459C204.736 105.733 204.714 106.061 204.714 106.443L204.706 107.586C204.705 108.469 204.548 109.205 204.234 109.793C203.92 110.381 203.397 110.762 202.665 110.936C202.066 111.085 201.504 111.053 200.978 110.839C200.452 110.623 199.994 110.262 199.605 109.756C199.216 109.25 198.934 108.636 198.759 107.915C198.58 107.181 198.55 106.509 198.668 105.901C198.786 105.289 199.031 104.776 199.405 104.361C199.778 103.946 200.258 103.662 200.845 103.51L201.332 105.514Z" fill="white"/>
<path d="M201.143 84.9594C201.299 85.2481 201.331 85.5511 201.239 85.8684C201.142 86.1844 200.95 86.4204 200.661 86.5763C200.375 86.7308 200.075 86.7611 199.761 86.6672C199.445 86.5705 199.209 86.3778 199.053 86.0891C198.901 85.8092 198.871 85.5091 198.962 85.1889C199.052 84.8686 199.241 84.6313 199.526 84.4769C199.719 84.3729 199.922 84.3271 200.136 84.3396C200.345 84.3508 200.541 84.4091 200.722 84.5145C200.901 84.6216 201.041 84.7699 201.143 84.9594Z" fill="white"/>
<path d="M190.793 69.845L183.319 76.7597L178.66 71.7236L179.962 70.5183L183.16 73.9742L184.941 72.3265L181.983 69.1298L183.286 67.9244L186.243 71.1212L188.028 69.4702L184.817 65.9997L186.12 64.7944L190.793 69.845Z" fill="white"/>
<path d="M172.897 66.5967L173.341 62.5892L173.278 62.5414L169.543 64.0745L167.6 62.6133L173.144 60.4124L173.665 54.4342L175.643 55.9224L175.223 59.9548L175.287 60.0026L179.044 58.4804L181.015 59.9626L175.408 62.1157L174.847 68.064L172.897 66.5967Z" fill="white"/>
<path d="M167.121 50.4021L162.605 59.5279L159.005 57.7464C158.313 57.4039 157.788 56.98 157.432 56.4745C157.074 55.972 156.883 55.4244 156.858 54.8316C156.829 54.2403 156.965 53.6416 157.264 53.0356C157.564 52.4296 157.96 51.9596 158.45 51.6255C158.941 51.2915 159.498 51.1179 160.122 51.105C160.743 51.0905 161.404 51.2567 162.105 51.6036L164.4 52.7391L163.635 54.2853L161.652 53.3042C161.281 53.1205 160.943 53.0329 160.64 53.0416C160.331 53.0518 160.061 53.1418 159.829 53.3118C159.593 53.4832 159.4 53.719 159.252 54.019C159.102 54.322 159.032 54.6165 159.042 54.9025C159.048 55.1901 159.141 55.4565 159.323 55.7018C159.504 55.9501 159.781 56.1668 160.155 56.352L161.456 56.9958L165.191 49.4475L167.121 50.4021Z" fill="white"/>
<path d="M153.082 44.2126L150.15 53.9632L148.089 53.3434L150.509 45.2925L146.329 44.0357L146.84 42.336L153.082 44.2126Z" fill="white"/>
<path d="M130.254 44.7826C130.386 43.6801 130.707 42.767 131.217 42.0434C131.724 41.3195 132.36 40.7962 133.126 40.4736C133.889 40.154 134.716 40.0473 135.608 40.1536C136.506 40.2607 137.288 40.5609 137.954 41.0541C138.619 41.5473 139.113 42.2054 139.436 43.0282C139.758 43.8511 139.854 44.8121 139.723 45.9113C139.591 47.0138 139.272 47.9271 138.765 48.651C138.258 49.375 137.624 49.8968 136.861 50.2165C136.099 50.5395 135.268 50.6474 134.369 50.5403C133.478 50.434 132.699 50.1342 132.033 49.641C131.364 49.1506 130.868 48.494 130.546 47.6712C130.22 46.848 130.123 45.8851 130.254 44.7826ZM132.422 45.0409C132.336 45.7551 132.372 46.3701 132.527 46.886C132.679 47.4015 132.933 47.8089 133.288 48.1082C133.642 48.4075 134.078 48.588 134.595 48.6496C135.112 48.7111 135.578 48.6382 135.993 48.4307C136.408 48.2232 136.752 47.887 137.024 47.4221C137.293 46.9568 137.47 46.3671 137.556 45.653C137.641 44.9388 137.607 44.324 137.455 43.8085C137.3 43.2926 137.044 42.885 136.69 42.5857C136.335 42.2864 135.899 42.1059 135.382 42.0443C134.866 41.9827 134.4 42.0557 133.984 42.2632C133.569 42.4707 133.227 42.8071 132.958 43.2724C132.685 43.7372 132.507 44.3268 132.422 45.0409Z" fill="white"/>
<path d="M123.809 39.6021L124.488 49.7613L120.479 50.0291C119.712 50.0804 119.048 49.9869 118.488 49.7486C117.924 49.5139 117.483 49.1564 117.165 48.676C116.844 48.1992 116.662 47.6251 116.617 46.9538C116.572 46.2791 116.678 45.689 116.937 45.1835C117.196 44.6812 117.593 44.2826 118.128 43.9878C118.659 43.6932 119.315 43.5198 120.096 43.4676L122.779 43.2883L122.895 45.0146L120.558 45.1707C120.148 45.1981 119.811 45.2771 119.548 45.4076C119.284 45.5382 119.094 45.7203 118.976 45.954C118.856 46.188 118.807 46.4719 118.829 46.806C118.852 47.1433 118.938 47.4231 119.089 47.6456C119.237 47.8682 119.452 48.0299 119.735 48.1306C120.014 48.2349 120.36 48.2732 120.774 48.2456L122.222 48.1488L121.661 39.7456L123.809 39.6021ZM118.631 44.5919L115.797 40.1374L118.169 39.979L120.948 44.4371L118.631 44.5919Z" fill="white"/>
<path d="M108.543 41.2853L110.965 51.1749L104.301 52.8066L103.879 51.0827L108.452 49.963L107.875 47.6064L103.645 48.6422L103.223 46.9183L107.453 45.8825L106.875 43.5211L102.282 44.6456L101.86 42.9216L108.543 41.2853Z" fill="white"/>
<path d="M84.7694 49.8839L86.763 48.7234L88.8474 59.2912L86.4498 60.6868L78.2942 53.6529L80.2879 52.4925L86.4438 57.9982L86.5125 57.9582L84.7694 49.8839ZM86.9073 53.2702L82.1981 56.0113L81.3528 54.559L86.0619 51.8179L86.9073 53.2702Z" fill="white"/>
<path d="M72.4945 57.8492L79.1507 65.554L76.1109 68.1801C75.5291 68.6827 74.9426 69.0077 74.3514 69.1548C73.7599 69.3067 73.1927 69.2864 72.6498 69.094C72.1066 68.9063 71.6151 68.5579 71.1752 68.0488C70.7332 67.5371 70.4633 67.0016 70.3655 66.4423C70.2699 65.8854 70.347 65.3282 70.5968 64.7708C70.8442 64.2155 71.2638 63.6821 71.8557 63.1708L73.891 61.4125L75.022 62.7217L73.2501 64.2525C72.9391 64.5212 72.7176 64.787 72.5856 65.0499C72.4536 65.3129 72.4111 65.573 72.4581 65.8302C72.5026 66.0896 72.6343 66.3459 72.8531 66.5992C73.0741 66.8551 73.3119 67.0263 73.5664 67.1131C73.8184 67.202 74.0875 67.2016 74.3737 67.1121C74.6595 67.0272 74.9592 66.8494 75.2727 66.5785L76.3712 65.6295L70.8655 59.2564L72.4945 57.8492ZM71.3627 64.9501L66.4187 63.0981L68.217 61.5445L73.1196 63.4323L71.3627 64.9501Z" fill="white"/>
<path d="M68.0772 73.3531L69.4585 74.4676L64.2076 80.9756L62.8263 79.8611L64.7837 77.4351L58.2408 72.1561L59.577 70.5001L66.1198 75.7791L68.0772 73.3531Z" fill="white"/>
<path d="M50.9354 82.7578L61.3334 84.7676L60.2692 86.8646L53.1978 85.1659L53.1596 85.2413L58.6268 90.101L57.7156 91.8965L50.5544 90.3418L50.5139 90.4216L56.0732 95.1328L55.0091 97.2298L47.2479 90.0241L48.1974 88.1533L55.0111 89.4368L55.0471 89.3659L49.986 84.6287L50.9354 82.7578Z" fill="white"/>
<path d="M46.1913 109.706C45.1167 109.426 44.2554 108.985 43.6075 108.382C42.9588 107.781 42.5264 107.08 42.3105 106.277C42.0969 105.479 42.1031 104.645 42.3291 103.775C42.5568 102.9 42.96 102.165 43.5387 101.573C44.1174 100.98 44.8363 100.58 45.6952 100.371C46.5541 100.163 47.5192 100.198 48.5906 100.477C49.6652 100.756 50.5269 101.196 51.1756 101.796C51.8244 102.396 52.2555 103.096 52.4691 103.895C52.6859 104.694 52.6805 105.532 52.4528 106.407C52.2268 107.277 51.8244 108.008 51.2457 108.6C50.6693 109.197 49.9517 109.599 49.0928 109.808C48.2331 110.019 47.2659 109.985 46.1913 109.706ZM46.7405 107.593C47.4365 107.774 48.0507 107.823 48.5828 107.738C49.1142 107.657 49.5521 107.461 49.8967 107.15C50.2413 106.839 50.479 106.432 50.6099 105.928C50.7409 105.425 50.7316 104.953 50.5822 104.514C50.4328 104.074 50.1462 103.688 49.7224 103.355C49.2979 103.026 48.7375 102.77 48.0414 102.589C47.3454 102.408 46.7317 102.358 46.2003 102.439C45.6682 102.524 45.2298 102.721 44.8852 103.032C44.5406 103.344 44.3029 103.751 44.172 104.254C44.041 104.758 44.0503 105.23 44.1997 105.669C44.3491 106.109 44.6361 106.493 45.0607 106.823C45.4845 107.156 46.0444 107.412 46.7405 107.593Z" fill="white"/>
<path d="M40.1872 115.39L50.3448 116.092L50.0679 120.099C50.0149 120.866 49.8325 121.511 49.5206 122.035C49.2117 122.562 48.7978 122.95 48.2789 123.2C47.7631 123.453 47.1695 123.557 46.4983 123.51C45.8238 123.464 45.2535 123.278 44.7876 122.954C44.3249 122.629 43.9837 122.182 43.764 121.612C43.544 121.045 43.461 120.372 43.5149 119.591L43.7003 116.908L45.4263 117.028L45.2649 119.364C45.2365 119.774 45.2692 120.118 45.3629 120.397C45.4566 120.676 45.6113 120.889 45.827 121.037C46.0425 121.188 46.3172 121.275 46.6511 121.298C46.9884 121.322 47.2774 121.273 47.5183 121.154C47.7589 121.038 47.9482 120.846 48.0862 120.58C48.2272 120.317 48.312 119.979 48.3406 119.566L48.4407 118.118L40.0388 117.537L40.1872 115.39ZM44.4307 121.195L39.6338 123.4L39.7976 121.029L44.5907 118.878L44.4307 121.195Z" fill="white"/>
<path d="M39.7687 130.758L49.8886 129.636L50.1258 131.776L45.6637 132.271L45.6785 132.404L50.5442 135.551L50.8285 138.116L45.881 134.863L40.7136 139.282L40.4299 136.722L44.2832 133.489L42.8818 132.579L40.0059 132.898L39.7687 130.758Z" fill="white"/>
<path d="M50.6278 149.175C51.0008 149.022 51.2506 148.769 51.3772 148.417C51.5038 148.064 51.4933 147.64 51.3455 147.145C51.2451 146.808 51.1127 146.538 50.9483 146.335C50.787 146.13 50.6054 145.991 50.4033 145.916C50.2021 145.845 49.9967 145.84 49.7871 145.903C49.6105 145.949 49.4689 146.031 49.3624 146.149C49.2568 146.27 49.1777 146.417 49.125 146.588C49.0755 146.758 49.0438 146.948 49.0298 147.156C49.0189 147.363 49.0214 147.58 49.0372 147.807L49.089 148.746C49.1206 149.2 49.1101 149.629 49.0573 150.032C49.0046 150.435 48.9011 150.802 48.7469 151.131C48.5927 151.461 48.3797 151.744 48.1079 151.981C47.837 152.22 47.4988 152.403 47.0932 152.527C46.4951 152.702 45.9319 152.704 45.4036 152.533C44.8795 152.364 44.4124 152.033 44.0024 151.539C43.5966 151.048 43.2753 150.406 43.0385 149.612C42.8036 148.824 42.7197 148.102 42.7869 147.445C42.8549 146.792 43.0768 146.231 43.4525 145.763C43.8324 145.297 44.3709 144.952 45.0681 144.726L45.6633 146.723C45.3428 146.842 45.0976 147.018 44.9277 147.248C44.7619 147.481 44.6651 147.753 44.6373 148.066C44.6136 148.381 44.6548 148.716 44.7608 149.072C44.865 149.421 45.0063 149.71 45.1846 149.937C45.3639 150.167 45.5654 150.326 45.7891 150.415C46.0127 150.504 46.2421 150.514 46.4771 150.444C46.6963 150.378 46.8611 150.258 46.9715 150.083C47.0829 149.912 47.1541 149.687 47.185 149.408C47.2169 149.132 47.2227 148.803 47.2024 148.422L47.1524 147.28C47.1072 146.398 47.2264 145.655 47.5099 145.051C47.7935 144.448 48.2962 144.04 49.0182 143.829C49.608 143.649 50.171 143.653 50.7072 143.839C51.2444 144.028 51.7201 144.365 52.1346 144.85C52.549 145.335 52.8623 145.933 53.0744 146.645C53.2904 147.369 53.355 148.038 53.2682 148.652C53.1824 149.269 52.9638 149.794 52.6123 150.228C52.2608 150.661 51.7958 150.969 51.2174 151.152L50.6278 149.175Z" fill="white"/>
<path d="M51.8764 169.693C51.7058 169.413 51.6583 169.112 51.7341 168.79C51.8145 168.469 51.9948 168.224 52.275 168.053C52.5525 167.884 52.8506 167.839 53.1694 167.916C53.49 167.996 53.7355 168.177 53.9062 168.457C54.0717 168.729 54.1174 169.027 54.0433 169.351C53.9692 169.676 53.7935 169.923 53.5161 170.091C53.3292 170.205 53.1286 170.261 52.9143 170.26C52.7046 170.26 52.5065 170.211 52.32 170.115C52.1363 170.018 51.9884 169.877 51.8764 169.693Z" fill="white"/>
</svg>
