<svg width="16" height="20" viewBox="0 0 16 20" fill="none" xmlns="http://www.w3.org/2000/svg">
<path d="M11.795 1.44585L11.3483 0.741455H8.64479V7.08562L8.63558 13.2825C8.64018 13.3285 8.64479 13.3791 8.64479 13.4252C8.64479 14.9767 7.38284 16.2428 5.82614 16.2428C4.26943 16.2428 3.00748 14.9813 3.00748 13.4252C3.00748 11.8737 4.26943 10.6076 5.82614 10.6076C6.14853 10.6076 6.46172 10.6674 6.75187 10.7687V7.67492C6.4525 7.62427 6.14393 7.59665 5.82614 7.59665C2.616 7.60125 0 10.2163 0 13.4298C0 16.6433 2.616 19.2583 5.83074 19.2583C9.04548 19.2583 11.6615 16.6433 11.6615 13.4298V6.05895C12.8267 7.22373 14.3328 8.3609 16 8.7246V5.56173C14.19 4.76065 12.3892 2.39425 11.795 1.44585Z" fill="#98A2B3"/>
</svg>
