<svg width="42" height="42" viewBox="0 0 42 42" fill="none" xmlns="http://www.w3.org/2000/svg">
<rect width="42" height="42" rx="21" fill="white"/>
<path d="M31 14.8C30.2483 15.1261 29.4534 15.3417 28.64 15.44C29.4982 14.9273 30.1413 14.1208 30.45 13.17C29.6436 13.6501 28.7608 13.9883 27.84 14.17C27.2245 13.5026 26.405 13.0583 25.5098 12.9068C24.6147 12.7554 23.6945 12.9054 22.8938 13.3332C22.093 13.761 21.4569 14.4425 21.0852 15.2708C20.7135 16.0991 20.6273 17.0274 20.84 17.91C19.2094 17.8275 17.6144 17.4029 16.1587 16.6639C14.7029 15.9248 13.4188 14.8877 12.39 13.62C12.0291 14.2502 11.8395 14.9638 11.84 15.69C11.8387 16.3644 12.0042 17.0286 12.3218 17.6236C12.6393 18.2185 13.099 18.7257 13.66 19.1C13.008 19.0823 12.3699 18.9073 11.8 18.59V18.64C11.8049 19.5849 12.136 20.4991 12.7373 21.228C13.3386 21.9568 14.1733 22.4556 15.1 22.64C14.7433 22.7486 14.3729 22.8058 14 22.81C13.7419 22.807 13.4844 22.7836 13.23 22.74C13.4939 23.5528 14.0046 24.2631 14.6911 24.7722C15.3775 25.2812 16.2056 25.5635 17.06 25.58C15.6172 26.7153 13.8359 27.3349 12 27.34C11.6657 27.3411 11.3317 27.3211 11 27.28C12.8744 28.4903 15.0588 29.1327 17.29 29.13C18.8297 29.146 20.3571 28.855 21.7831 28.2741C23.2091 27.6931 24.505 26.8339 25.5952 25.7465C26.6854 24.6591 27.548 23.3654 28.1326 21.9409C28.7172 20.5164 29.012 18.9897 29 17.45C29 17.28 29 17.1 29 16.92C29.7847 16.3348 30.4615 15.6174 31 14.8Z" fill="#17172F"/>
</svg>
