<svg width="42" height="42" viewBox="0 0 42 42" fill="none" xmlns="http://www.w3.org/2000/svg">
<rect width="42" height="42" rx="21" fill="white"/>
<g clip-path="url(#clip0_71_9889)">
<path fill-rule="evenodd" clip-rule="evenodd" d="M21 13C21.8554 13 22.7316 13.0224 23.5817 13.0578L24.5861 13.1058L25.5475 13.1626L26.4476 13.2245L27.2685 13.2879C29.1065 13.437 30.5836 14.8594 30.7633 16.7111L30.8031 17.1356L30.8781 18.0456C30.9482 18.9888 31 20.0173 31 21C31 21.9827 30.9482 23.0112 30.8781 23.9544L30.8031 24.8644C30.79 25.0097 30.7767 25.1514 30.7633 25.2889C30.5836 27.1406 29.1065 28.563 27.2685 28.7121L26.4476 28.7755L25.5475 28.8374L24.5861 28.8942L23.5817 28.9422C22.7316 28.9776 21.8554 29 21 29C20.1446 29 19.2684 28.9776 18.4183 28.9422L17.4139 28.8942L16.4525 28.8374L15.5524 28.7755L14.7315 28.7121C12.8935 28.563 11.4164 27.1406 11.2367 25.2889L11.1969 24.8644L11.1219 23.9544C11.0518 23.0112 11 21.9827 11 21C11 20.0173 11.0518 18.9888 11.1219 18.0456L11.1969 17.1356C11.21 16.9903 11.2233 16.8486 11.2367 16.7111C11.4164 14.8594 12.8935 13.437 14.7315 13.2879L15.5524 13.2245L16.4525 13.1626L17.4139 13.1058L18.4183 13.0578C19.2684 13.0224 20.1446 13 21 13ZM19 18.5751V23.4249C19 23.8868 19.5 24.1754 19.9 23.9445L24.1 21.5196C24.5 21.2887 24.5 20.7113 24.1 20.4804L19.9 18.0555C19.5 17.8246 19 18.1133 19 18.5751Z" fill="#17172F"/>
</g>
<defs>
<clipPath id="clip0_71_9889">
<rect width="24" height="24" fill="white" transform="translate(9 9)"/>
</clipPath>
</defs>
</svg>
